<?xml version="1.0" encoding="UTF-8"?>
<svg version="1.1" viewBox="0 0 1247 1370" width="1247" height="1370" xmlns="http://www.w3.org/2000/svg">
<path transform="translate(625,21)" d="m0 0 5 2 28 16 24 14 182 105 24 14 28 16 24 14 28 16 24 14 182 105 22 13 1 1v661l-78 45-24 14-286 165-24 14-28 16-24 14-104 60-5 1-24-14-312-180-24-14-28-16-24-14-130-75-24-14-4-3v-660l24-14 156-90 24-14 28-16 24-14 208-120 24-14 78-45z" fill="#FEFEFE"/>
<path transform="translate(667,138)" d="m0 0 5 2 130 75 24 14 28 16 24 14 234 135 15 9v556l-9 6-28 16-78 45-24 14-28 16-24 14-260 150-7 4h-2z" fill="#FEFEFE"/>
<path transform="translate(625,21)" d="m0 0 5 2 28 16 24 14 182 105 24 14 28 16 24 14 28 16 24 14 182 105 22 13 1 1v661l-78 45-24 14-286 165-24 14-28 16-24 14-104 60-5 1-24-14-312-180-24-14-28-16-24-14-130-75-24-14-4-3v-660l24-14 156-90 24-14 28-16 24-14 208-120 24-14 78-45zm-33 117-22 13-52 30-24 14-286 165-24 14-26 15-24 14v556l9 6 23 13 24 14 260 150 24 14 28 16 24 14 52 30 14 8h2v-1086zm75 0v1086l6-2 24-14 28-16 24-14 286-165 24-14 52-30 15-9 1-1v-556l-24-14-130-75-24-14-28-16-24-14-28-16-24-14-156-90-20-12z"/>
<path transform="translate(759,297)" d="m0 0 14 8 23 13 24 14 208 120 6 4v451l-28 16-24 14-28 16-24 14-28 16-24 14-28 16-24 14-52 30-13 8h-2z" fill="#366"/>
<path transform="translate(501,297)" d="m0 0h1v768l-14-7-22-13-52-30-24-14-28-16-24-14-28-16-24-14-28-16-24-14-7-4v-451l22-13 208-120 24-14z" fill="#366"/>
</svg>
